<svg xmlns="http://www.w3.org/2000/svg" xmlns:xlink="http://www.w3.org/1999/xlink" version="1.1" viewBox="0 0 400 400" width="24" height="24">
	<rect style="fill: white" width="400" height="400" rx="80" ry="80"></rect>
	<g transform="matrix(0.340816, 0, 0, -0.359712, 85.925193, 317.95544)">
		<path fill="#007aff" d="M582 -77h-249q-26 0 -52 2t-51 8.5t-49 17t-45.5 25.5t-38 35.5t-27.5 44t-15.5 49t-4.5 51.5v368q0 26 4.5 51.5t15.5 49t27.5 44t38 35.5t45.5 25.5t49 16.5t51 8.5t52 2.5t52 -2.5t51.5 -8.5t49.5 -16.5t45 -25.5t38 -35.5t28 -44t15.5 -49t4.5 -51.5v-330 q0 -22 -9 -42.5t-27 -34t-39.5 -18t-43.5 -4.5h-165q-21 0 -42.5 4t-39.5 16.5t-27.5 32.5t-9.5 41v261q0 22 9 43.5t26.5 35t39.5 18.5t44 5q23 0 45 -5t39.5 -18.5t26 -35t8.5 -43.5v-289h46q8 0 15.5 1.5t14.5 5.5t11 11t4 15v330q0 25 -6.5 49.5t-21.5 45t-36.5 34.5 t-45.5 22.5t-49 11.5t-51 3q-25 0 -50 -3t-49 -11.5t-45.5 -22.5t-36.5 -34.5t-21.5 -45t-6.5 -49.5v-368q0 -25 6.5 -49.5t22 -44.5t37 -33.5t45 -21.5t48.5 -11t50 -3h249v-70zM333 161h46v289q0 8 -4 15.5t-10.5 12.5t-14.5 6.5t-17 1.5q-8 0 -16 -1.5t-15 -6.5 t-10.5 -12.5t-3.5 -15.5v-261q0 -7 4.5 -13.5t11.5 -9.5t14.5 -4t14.5 -1z"></path>
	</g>
</svg>